<mxfile host="app.diagrams.net" agent="Mozilla/5.0 (Windows NT 10.0; Win64; x64) AppleWebKit/537.36 (KHTML, like Gecko) Chrome/127.0.0.0 Safari/537.36" version="24.7.6">
  <diagram name="Page-1" id="238rUeQwhfSeOOqvywA4">
    <mxGraphModel dx="2294" dy="749" grid="1" gridSize="10" guides="1" tooltips="1" connect="1" arrows="1" fold="1" page="1" pageScale="1" pageWidth="850" pageHeight="1100" math="0" shadow="0">
      <root>
        <mxCell id="0" />
        <mxCell id="1" parent="0" />
        <mxCell id="r4k54PH9zmOksumeJLMc-3" style="edgeStyle=orthogonalEdgeStyle;rounded=0;orthogonalLoop=1;jettySize=auto;html=1;" edge="1" parent="1" source="r4k54PH9zmOksumeJLMc-1" target="r4k54PH9zmOksumeJLMc-2">
          <mxGeometry relative="1" as="geometry" />
        </mxCell>
        <mxCell id="r4k54PH9zmOksumeJLMc-1" value="Quantum-Safe Encryption" style="rounded=1;whiteSpace=wrap;html=1;" vertex="1" parent="1">
          <mxGeometry x="60" y="140" width="120" height="60" as="geometry" />
        </mxCell>
        <mxCell id="r4k54PH9zmOksumeJLMc-2" value="WIF SERVICE" style="shape=cube;whiteSpace=wrap;html=1;boundedLbl=1;backgroundOutline=1;darkOpacity=0.05;darkOpacity2=0.1;" vertex="1" parent="1">
          <mxGeometry x="-60" y="240" width="120" height="80" as="geometry" />
        </mxCell>
        <mxCell id="r4k54PH9zmOksumeJLMc-4" value="Intelligent Wi-Fi" style="rounded=1;whiteSpace=wrap;html=1;" vertex="1" parent="1">
          <mxGeometry x="-190" y="140" width="120" height="60" as="geometry" />
        </mxCell>
        <mxCell id="r4k54PH9zmOksumeJLMc-5" style="edgeStyle=orthogonalEdgeStyle;rounded=0;orthogonalLoop=1;jettySize=auto;html=1;entryX=0.5;entryY=-0.017;entryDx=0;entryDy=0;entryPerimeter=0;" edge="1" parent="1" source="r4k54PH9zmOksumeJLMc-4" target="r4k54PH9zmOksumeJLMc-2">
          <mxGeometry relative="1" as="geometry">
            <Array as="points">
              <mxPoint x="-140" y="220" />
              <mxPoint y="220" />
            </Array>
          </mxGeometry>
        </mxCell>
        <mxCell id="r4k54PH9zmOksumeJLMc-6" value="WIFI Providers" style="whiteSpace=wrap;html=1;aspect=fixed;" vertex="1" parent="1">
          <mxGeometry x="80" y="340" width="80" height="80" as="geometry" />
        </mxCell>
        <mxCell id="r4k54PH9zmOksumeJLMc-7" value="Consumers" style="whiteSpace=wrap;html=1;aspect=fixed;" vertex="1" parent="1">
          <mxGeometry x="-170" y="340" width="80" height="80" as="geometry" />
        </mxCell>
        <mxCell id="r4k54PH9zmOksumeJLMc-8" value="" style="rounded=0;whiteSpace=wrap;html=1;" vertex="1" parent="1">
          <mxGeometry x="-170" y="460" width="330" height="250" as="geometry" />
        </mxCell>
        <mxCell id="r4k54PH9zmOksumeJLMc-9" value="&lt;h1 style=&quot;margin-top: 0px; font-size: 21px;&quot;&gt;&lt;font style=&quot;font-size: 21px;&quot;&gt;SUBSCRIPTION&lt;/font&gt;&lt;/h1&gt;&lt;p style=&quot;font-size: 21px;&quot;&gt;&lt;br&gt;&lt;/p&gt;" style="text;html=1;whiteSpace=wrap;overflow=hidden;rounded=0;" vertex="1" parent="1">
          <mxGeometry x="-80" y="470" width="160" height="40" as="geometry" />
        </mxCell>
        <mxCell id="r4k54PH9zmOksumeJLMc-10" value="" style="rounded=0;whiteSpace=wrap;html=1;" vertex="1" parent="1">
          <mxGeometry x="-530" y="460" width="330" height="250" as="geometry" />
        </mxCell>
        <mxCell id="r4k54PH9zmOksumeJLMc-11" value="&lt;h1 style=&quot;margin-top: 0px; font-size: 21px;&quot;&gt;NETWORK&lt;/h1&gt;" style="text;html=1;whiteSpace=wrap;overflow=hidden;rounded=0;" vertex="1" parent="1">
          <mxGeometry x="-422.5" y="470" width="115" height="40" as="geometry" />
        </mxCell>
        <mxCell id="r4k54PH9zmOksumeJLMc-12" value="" style="rounded=0;whiteSpace=wrap;html=1;" vertex="1" parent="1">
          <mxGeometry x="190" y="460" width="330" height="250" as="geometry" />
        </mxCell>
        <mxCell id="r4k54PH9zmOksumeJLMc-13" value="&lt;h1 style=&quot;margin-top: 0px; font-size: 21px;&quot;&gt;PAYMENT DISTRIBUTOR&lt;/h1&gt;" style="text;html=1;whiteSpace=wrap;overflow=hidden;rounded=0;" vertex="1" parent="1">
          <mxGeometry x="225" y="470" width="260" height="40" as="geometry" />
        </mxCell>
      </root>
    </mxGraphModel>
  </diagram>
</mxfile>
